<svg width="90" height="90" viewBox="0 0 90 90" fill="none" xmlns="http://www.w3.org/2000/svg">
<g clip-path="url(#clip0_102_365)">
<path d="M89.9189 44.962C89.9189 20.2753 69.8058 0.262794 44.9951 0.262794C20.1844 0.262794 0.0712891 20.2753 0.0712891 44.962C0.0712891 69.6486 20.1844 89.6611 44.9951 89.6611C69.8058 89.6611 89.9189 69.6486 89.9189 44.962Z" fill="#112255"/>
<path d="M43.3755 16.6527C34.148 16.6527 26.6641 25.4535 26.6641 36.3139C26.6641 40.5038 27.7806 44.3945 29.6821 47.5853H57.0689C58.9707 44.3945 60.0868 40.5089 60.0868 36.3139C60.0819 25.4535 52.6028 16.6527 43.3755 16.6527Z" fill="black"/>
<path d="M76.325 59.805C71.9711 50.6592 62.6568 48.7724 58.543 48.9753C58.543 48.9753 51.5022 49.1022 49.5041 52.5767C48.3468 54.5904 48.2346 55.103 48.2346 55.103L16.6368 55.7015C7.45007 57.0456 2.79556 65.1973 -0.278564 71.7561L-13.3041 100.584C-18.8202 119.859 4.23322 119.403 4.23322 119.403H35.0867H47.5359H68.6574H74.6372C97.9761 119.403 97.2267 107.32 92.8326 92.8174C92.8375 91.935 79.3023 66.0546 76.325 59.805Z" fill="#6983FF" stroke="black" stroke-width="1.08215"/>
<path d="M84.1193 94.6634L63.2533 58.415L48.6113 61.5141L62.4478 106.711C63.3297 110.612 66.8524 118.616 73.862 119.443" stroke="white" stroke-width="1.08215" stroke-linecap="round"/>
<path d="M20.4713 78.0457L7.34375 101.02H35.0211V118.961" stroke="white" stroke-width="1.08215" stroke-linecap="round"/>
<path d="M58.8896 50.8316L61.6221 58.6638L51.1355 60.8805L48.877 51.5214C51.2016 46.2663 55.0915 37.6277 55.3262 36.9176C55.5659 36.2024 56.626 35.9082 57.1004 36.3647C57.3347 35.5277 59.1243 35.8118 59.1243 36.9176C60.5923 36.3647 60.8985 37.6125 60.8677 38.0792C62.0812 37.506 62.8459 38.5459 62.5705 39.3474C62.4276 39.7633 61.8568 45.9671 61.8568 45.9671C61.0003 48.6302 58.8896 50.8316 58.8896 50.8316Z" fill="#FF85D2"/>
<path d="M60.4543 38.8705L59.7148 44.7192" stroke="#FF01A1" stroke-width="1.08215" stroke-linecap="round"/>
<path d="M59.7102 44.7192C58.466 44.7953 55.6977 45.7947 54.5508 49.1778" stroke="#FF01A1" stroke-width="1.08215" stroke-linecap="round"/>
<path d="M58.6443 37.7139L57.9053 43.5625" stroke="#FF01A1" stroke-width="1.08215" stroke-linecap="round"/>
<path d="M57.1306 37.0292L56.3916 42.8779" stroke="#FF01A1" stroke-width="1.08215" stroke-linecap="round"/>
<path d="M53.4347 34.5942L54.2501 28.8267C54.1637 28.2332 48.7904 23.1759 35.3212 27.7716C36.6518 32.0529 34.6788 36.8617 34.6788 36.8617C31.9208 34.5942 28.3012 36.0906 28.1992 38.8704C28.3675 43.6335 32.2267 43.2125 33.9549 42.061V55.8279C33.9549 55.8279 34.8827 58.3438 36.6518 59.2213C42.5961 62.5036 46.5472 57.9483 47.9949 55.8279V48.7975C49.7537 48.7975 53.4397 49.0153 54.9846 45.9414C56.5648 42.7864 54.9285 37.2776 53.4347 34.5942Z" fill="#FF85D2"/>
<path d="M54.9992 38.3935C55.7948 41.4827 58.308 48.4119 50.8086 48.8074" stroke="#FF01A1" stroke-width="1.08215" stroke-linecap="round"/>
<path d="M47.9996 52.3535L41.5303 48.1077C41.5303 48.1077 43.5338 48.4479 44.8185 48.5744C46.0626 48.7013 47.9996 48.762 47.9996 48.762V52.3535Z" fill="black"/>
<path d="M47.7807 31.1752C48.2904 33.7927 46.2764 35.3297 46.2764 35.3297L48.6829 39.5551H45.8481" stroke="black" stroke-width="1.08215" stroke-linecap="round"/>
<path d="M42.9324 30.3434C41.8974 30.1659 40.8524 30.1862 40.1284 30.3891" stroke="black" stroke-width="1.08215" stroke-linecap="round"/>
<path d="M52.3485 30.5768C51.3133 30.3992 50.2686 30.4195 49.5396 30.6224" stroke="black" stroke-width="1.08215" stroke-linecap="round"/>
<path d="M45.6805 43.7501C44.7526 43.2631 43.9369 42.6087 43.4883 42.0051" stroke="black" stroke-width="1.08215" stroke-linecap="round"/>
<path d="M34.3431 39.9204L30.9121 37.1255" stroke="black" stroke-width="1.08215" stroke-linecap="round"/>
<path d="M31.9051 37.9775L30.1973 39.5856" stroke="black" stroke-width="1.08215" stroke-linecap="round"/>
<path d="M41.3829 35.1473C41.7293 35.1473 42.01 34.8679 42.01 34.5233C42.01 34.1788 41.7293 33.8994 41.3829 33.8994C41.0366 33.8994 40.7559 34.1788 40.7559 34.5233C40.7559 34.8679 41.0366 35.1473 41.3829 35.1473Z" fill="black"/>
<path d="M50.7943 35.3806C51.1407 35.3806 51.4216 35.1013 51.4216 34.7567C51.4216 34.4121 51.1407 34.1328 50.7943 34.1328C50.4483 34.1328 50.1675 34.4121 50.1675 34.7567C50.1675 35.1013 50.4483 35.3806 50.7943 35.3806Z" fill="black"/>
</g>
<defs>
<clipPath id="clip0_102_365">
<rect width="90" height="90" fill="white"/>
</clipPath>
</defs>
</svg>
