<svg width="90" height="90" viewBox="0 0 90 90" fill="none" xmlns="http://www.w3.org/2000/svg">
<g clip-path="url(#clip0_102_151)">
<path d="M89.789 44.962C89.789 20.2753 69.7765 0.262794 45.0898 0.262794C20.4031 0.262794 0.390625 20.2753 0.390625 44.962C0.390625 69.6486 20.4031 89.6611 45.0898 89.6611C69.7765 89.6611 89.789 69.6486 89.789 44.962Z" fill="#112255"/>
<path d="M19.3858 64.8049C20.743 78.5169 34.3221 75.8376 40.9402 72.7803C40.9402 73.8018 41.4439 76.0473 43.4517 76.8312C47.0405 78.0061 48.0759 73.4868 48.1461 71.0802C48.7266 72.1296 50.3286 74.4592 52.0706 75.3547C58.9686 78.2721 62.8863 71.5702 63.9848 67.855C66.8319 68.9535 72.9951 70.2967 74.8491 66.8759C76.7031 63.4549 74.9679 58.8168 73.8699 56.9205C78.914 54.675 76.6262 50.8482 74.8491 49.2111C75.9966 47.5533 77.7525 43.6565 75.6186 41.3618C71.5821 37.6051 67.8183 38.4446 66.44 39.3331C67.2095 37.9548 68.2872 34.233 66.44 30.3643C64.5932 26.4956 60.5774 25.901 58.8008 26.0898C59.6963 20.766 55.8065 20.0874 53.7567 20.4092C53.9453 18.8911 53.3927 15.1413 50.2517 14.1828C45.7044 12.5528 43.2208 15.2462 42.5422 16.4145C38.3937 13.889 35.8612 17.4639 35.1126 19.5697C33.9233 19.5697 32.0274 19.6396 30.1385 21.4656C27.8369 24.2149 28.6694 27.566 29.369 28.8952C23.7093 29.0071 24.0171 34.268 24.8846 36.8845C18.3784 39.5779 20.771 45.7551 22.7859 48.5118C13.6842 51.7716 16.7274 60.7333 19.3858 64.8049Z" fill="#111111"/>
<path d="M29.1809 55.6686L68.5465 54.9203C72.1915 54.7452 80.4535 56.4241 84.3154 64.5745C88.1773 72.7245 95.1519 94.1809 95.1519 94.1809L108.724 76.9851C108.724 76.9851 111.935 71.9131 113.313 68.5269C114.698 65.1411 116.476 62.7412 117.945 64.1268C118.987 65.1132 117.714 67.8483 117.413 69.4296L121.421 64.3154C122.604 62.7066 124.437 62.5315 124.962 63.7699C125.073 64.3153 125.011 64.5394 124.885 64.9102C124.885 64.9102 123.821 66.9249 123.597 67.2817L126.277 64.1268C126.941 63.364 128.613 62.6225 129.152 64.3154C129.194 64.4837 129.152 64.7073 129.061 64.9102C129.061 64.9102 128.438 66.2112 128.124 66.6522L129.229 65.547C130.579 64.6304 131.951 65.309 130.74 67.6314C130.124 68.5692 129.572 69.4017 129.376 69.6955C129.376 69.6955 129.74 69.2824 130.74 68.3523C131.74 67.4217 133.881 67.7507 132.734 70.2972C132.734 70.2972 111.453 100.827 101.077 115.519C99.1186 117.729 92.5216 122.745 85.5745 115.519C83.0491 113.468 76.3963 96.8881 73.3808 92.628V101.484C73.3808 101.484 39.7097 91.7325 28.1594 103.905L28.2924 92.628L4.66031 117.058C1.61709 119.296 -6.5541 122.43 -14.9212 117.058C-23.2813 111.685 -48.3473 90.9976 -49.3688 90.2353C-50.3903 89.4726 -50.6842 87.0732 -47.9977 88.0947C-47.1863 88.4371 -45.7522 89.1157 -45.3463 89.3119C-45.3463 89.3119 -47.8856 87.6748 -48.9422 86.8491C-49.9916 86.0238 -50.2085 85.1355 -49.7959 84.3655C-49.3828 83.596 -47.9486 83.8408 -47.6062 84.0019L-44.031 85.8838L-47.6062 83.1343C-47.9977 82.7428 -48.5782 81.5535 -47.8019 80.8816C-46.9834 80.1751 -45.9619 80.5671 -45.1505 81.2596L-41.2117 83.862C-41.2117 83.862 -43.7512 79.9092 -43.8911 79.0767C-44.031 78.2442 -43.0027 77.5588 -42.1981 78.1533C-41.3866 78.7482 -39.085 82.0219 -38.0216 83.4912L-34.8315 84.8763C-34.8315 84.8763 -36.4545 82.7217 -37.329 81.2596C-38.1195 79.9443 -37.0282 78.0133 -35.0973 79.182C-34.7685 79.3845 -34.7125 79.5384 -34.4747 79.7206C-34.4747 79.7206 -28.0175 87.4998 -26.1565 90.0882L-6.28126 101.345L14.1747 69.9682C17.2599 65.6307 21.0866 58.1522 29.1809 55.6686Z" fill="#6983FF"/>
<path d="M20.1136 101.086L6.00293 82.9102L17.6021 103.688L20.1136 101.086Z" fill="#111111"/>
<path d="M78.5439 102.569L92.6055 86.4364L79.929 105.458L78.5439 102.569Z" fill="#111111"/>
<path d="M28.0967 110.887L28.6703 55.7033C41.7247 55.4373 68.1552 54.9131 69.4494 54.9131C70.6946 54.8357 72.5976 55.2137 73.395 55.4094V110.313L72.2615 109.103C71.6252 108.529 70.0511 107.382 68.8199 107.382C65.8184 107.158 63.6777 109.243 62.9852 110.313C62.8731 109.355 62.5235 107.13 62.0055 105.892C61.362 104.353 59.8091 101.855 56.3252 102.45C49.973 103.394 45.5652 111.104 44.2712 114.105C44.2222 112.727 43.6485 110.537 43.3687 110.145C43.0959 109.397 41.5498 106.759 37.4781 105.892C33.4136 105.017 29.5378 109.222 28.0967 110.887Z" fill="#112255"/>
<path d="M64.6224 84.3795C63.573 85.009 61.0544 86.94 59.3403 89.6126" stroke="white" stroke-width="1.49246" stroke-linecap="round"/>
<path d="M40.7941 77.5867C39.7447 78.2163 37.2192 80.1472 35.5122 82.8194" stroke="white" stroke-width="1.49246" stroke-linecap="round"/>
<path d="M69.7983 73.5988C68.8888 72.7735 66.3144 70.9128 63.2715 70.0452" stroke="white" stroke-width="1.49246" stroke-linecap="round"/>
<path d="M20.0232 101.197C20.0232 101.197 25.396 95.6498 28.2853 92.6555L29.3557 55.6542C24.4446 56.0462 19.3026 61.9434 17.3437 64.8401L5.63965 82.5953L20.0232 101.197Z" fill="white" stroke="#111111" stroke-width="1.49246"/>
<path d="M78.5511 102.618L73.332 92.6487V55.4238C78.2433 55.8153 82.3289 60.2788 84.2877 63.1822L94.4316 84.3588L78.5511 102.618Z" fill="white" stroke="#111111" stroke-width="1.49246"/>
<path d="M53.9537 55.2069L38.5137 55.4585L49.1823 106.633C51.3999 104.633 53.9888 103.08 55.08 102.723L53.9537 55.2069Z" fill="white" stroke="#111111" stroke-width="0.99497"/>
<path d="M35.4145 38.4446L34.1832 36.2759C37.1845 35.3384 36.4919 32.9528 35.7643 31.8754C39.9409 32.7639 41.417 28.9582 41.6269 26.9503C43.019 31.4697 46.4123 31.2388 47.7132 30.8471C46.4469 35.2125 49.5393 37.0034 51.8829 37.85L52.4076 40.2705C54.6041 38.4516 57.6123 38.7804 58.34 40.9561C59.3264 44.8248 56.1782 45.9653 52.7645 45.8181V49.3583V55.4585C52.7645 55.4585 51.5121 57.0258 50.1059 57.7251C45.3696 60.3558 40.8993 57.1586 39.745 55.4585V49.8267C38.3388 49.8267 35.4075 50.0018 34.1692 47.5394C32.917 45.0068 34.2182 40.5923 35.4145 38.4446Z" fill="#6983FF"/>
<path d="M39.731 52.2684L44.1104 49.379C44.1104 49.379 42.7532 49.6098 41.8857 49.7012C41.0392 49.7849 39.731 49.8267 39.731 49.8267V52.2684Z" fill="#111111"/>
<path d="M40.0036 36.4019C39.5769 38.6126 41.2699 39.9138 41.2699 39.9138L39.248 43.4887H41.6336" stroke="#111111" stroke-width="1.49246" stroke-linecap="round"/>
<path d="M44.1938 36.3738C44.8934 36.2548 45.6071 36.2688 46.0967 36.4018" stroke="#111111" stroke-width="1.49246" stroke-linecap="round"/>
<path d="M36.6729 35.9468C37.3724 35.8279 38.086 35.8419 38.5757 35.9748" stroke="#111111" stroke-width="1.49246" stroke-linecap="round"/>
<path d="M43.1104 45.6714C43.74 45.3352 44.2926 44.8947 44.5935 44.4819" stroke="#111111" stroke-width="1.49246" stroke-linecap="round"/>
<path d="M53.96 42.5301L56.4993 40.4594" stroke="#111111" stroke-width="1.49246" stroke-linecap="round"/>
<path d="M55.8145 41.2079L57.1645 42.5302" stroke="#111111" stroke-width="1.49246" stroke-linecap="round"/>
<path d="M37.7301 39.417C38.0739 39.417 38.3527 39.1383 38.3527 38.7944C38.3527 38.4505 38.0739 38.1718 37.7301 38.1718C37.3862 38.1718 37.1074 38.4505 37.1074 38.7944C37.1074 39.1383 37.3862 39.417 37.7301 39.417Z" fill="#111111"/>
<path d="M44.8233 39.417C45.167 39.417 45.446 39.1383 45.446 38.7944C45.446 38.4505 45.167 38.1718 44.8233 38.1718C44.4795 38.1718 44.2007 38.4505 44.2007 38.7944C44.2007 39.1383 44.4795 39.417 44.8233 39.417Z" fill="#111111"/>
<path d="M54.7856 65.5956L58.8991 68.814L65.8183 55.4166" stroke="white" stroke-width="1.49246" stroke-linecap="round"/>
<path d="M40.4375 66.5118L36.324 69.7298L30.0347 56.5358" stroke="white" stroke-width="1.49246" stroke-linecap="round"/>
</g>
<defs>
<clipPath id="clip0_102_151">
<rect width="90" height="90" fill="white"/>
</clipPath>
</defs>
</svg>
