<svg width="431" height="674" viewBox="0 0 431 674" fill="none" xmlns="http://www.w3.org/2000/svg">
<path d="M110.853 480.422C172.075 480.422 221.706 433.196 221.706 374.94C221.706 316.684 172.075 269.458 110.853 269.458C49.6305 269.458 0 316.684 0 374.94C0 433.196 49.6305 480.422 110.853 480.422Z" fill="#F0F0F0"/>
<path d="M111.157 374.94H111.462L116.944 674H105.371L111.157 374.94Z" fill="#F0F0F0"/>
<path d="M247.025 350.124C348.631 350.124 431 271.746 431 175.062C431 78.3779 348.631 0 247.025 0C145.418 0 63.0488 78.3779 63.0488 175.062C63.0488 271.746 145.418 350.124 247.025 350.124Z" fill="#112255"/>
<path opacity="0.1" d="M382.866 58.1337C400.027 96.331 402.355 139.09 389.434 178.77C376.514 218.451 349.186 252.466 312.335 274.739C275.483 297.011 231.51 306.089 188.272 300.351C145.034 294.613 105.349 274.432 76.3086 243.414C86.7917 266.751 102.482 287.64 122.291 304.635C142.101 321.629 165.556 334.322 191.033 341.834C216.509 349.346 243.398 351.497 269.835 348.14C296.272 344.782 321.626 335.995 344.14 322.388C366.655 308.78 385.79 290.678 400.222 269.335C414.654 247.992 424.037 223.918 427.721 198.782C431.405 173.646 429.301 148.048 421.556 123.762C413.811 99.4761 400.609 77.0828 382.866 58.1337Z" fill="#6083EC"/>
<path d="M246.518 175.063H246.012L236.914 671.393H256.121L246.518 175.063Z" fill="#3F3D56"/>
</svg>
